<svg version="1.0" xmlns="http://www.w3.org/2000/svg"
 width="497.000000pt" height="769.000000pt" viewBox="0 0 497.000000 769.000000"
 preserveAspectRatio="xMidYMid meet">

<g transform="translate(0.000000,769.000000) scale(0.100000,-0.100000)"
fill="#000000" stroke="none">
<path d="M2430 7683 c-117 -20 -242 -84 -270 -138 -8 -16 -27 -51 -42 -76 -37
-60 -36 -84 2 -98 35 -12 35 -2 20 -241 -14 -229 -14 -227 -57 -245 l-36 -15
6 -68 c7 -85 60 -252 93 -291 13 -16 38 -33 55 -36 41 -9 57 -39 65 -120 9
-109 7 -113 -158 -193 -79 -38 -204 -95 -278 -127 -191 -82 -375 -175 -446
-228 -68 -50 -173 -178 -228 -278 -88 -160 -153 -432 -236 -974 -22 -148 -47
-313 -55 -365 -8 -52 -19 -167 -25 -255 -11 -170 -16 -195 -78 -375 -22 -63
-50 -171 -62 -240 -13 -69 -29 -137 -37 -152 -9 -19 -37 -39 -91 -64 -332
-157 -387 -187 -437 -238 -59 -61 -125 -185 -132 -250 -5 -40 19 -169 68 -367
12 -50 62 -120 126 -179 72 -66 121 -99 273 -186 69 -40 126 -79 128 -88 2 -9
-21 -61 -51 -114 -30 -53 -67 -122 -82 -152 -15 -30 -58 -98 -95 -151 -79
-111 -124 -190 -176 -309 -32 -75 -37 -97 -39 -180 -2 -52 -8 -135 -14 -184
-25 -218 54 -457 191 -581 63 -57 104 -78 199 -105 65 -18 103 -20 325 -20
274 0 364 11 460 56 46 22 105 77 235 222 33 36 45 42 130 61 148 34 393 102
405 112 6 5 14 48 17 96 8 115 28 175 87 256 38 50 60 71 100 89 36 16 52 30
57 48 9 39 50 106 76 123 13 8 34 17 48 19 21 3 24 9 27 51 7 110 -56 223
-212 382 -114 117 -155 145 -208 145 -33 0 -50 12 -163 116 -70 64 -123 120
-118 123 4 4 71 17 148 30 173 29 268 56 555 158 165 59 249 84 315 92 49 7
125 21 170 32 44 10 100 19 123 19 62 0 475 -86 612 -127 127 -38 202 -74 231
-111 25 -33 25 -106 -1 -251 -29 -157 -52 -222 -151 -416 -98 -192 -127 -271
-138 -377 -10 -93 -1 -132 42 -177 44 -47 47 -55 58 -190 13 -166 35 -195 174
-232 59 -16 111 -22 200 -22 133 -1 195 12 231 48 35 35 31 81 -17 194 -79
184 -105 310 -80 382 9 27 8 35 -5 50 -10 11 -14 25 -9 36 4 10 11 78 16 151
6 96 14 146 29 178 10 25 86 131 168 237 313 406 415 576 469 787 37 149 40
253 10 385 -14 61 -30 144 -36 185 -17 114 -39 180 -79 234 -46 63 -180 177
-248 211 -30 15 -54 32 -54 38 0 6 23 35 52 64 l51 52 9 113 c10 119 6 250
-14 431 -10 97 -10 112 5 137 9 15 17 38 17 50 0 33 -65 339 -106 500 -33 127
-37 161 -39 275 -1 122 -5 141 -54 325 -110 410 -129 456 -236 565 -127 129
-245 183 -533 241 -97 19 -211 44 -252 54 -41 10 -113 24 -160 31 -111 16
-120 24 -120 109 0 92 13 126 55 140 46 15 64 48 87 159 27 131 22 210 -16
250 -25 26 -29 40 -36 122 -5 52 -13 114 -18 139 -6 25 -13 75 -17 111 -5 57
-14 79 -69 170 -67 110 -118 160 -184 179 -66 20 -443 36 -522 23z m-702
-3240 c18 -76 50 -226 72 -333 22 -107 54 -244 71 -305 17 -60 33 -124 36
-142 5 -30 3 -32 -34 -42 -50 -14 -106 -50 -222 -144 -138 -111 -179 -131
-271 -132 l-74 0 -9 45 c-16 89 -3 177 42 292 39 98 46 109 94 145 50 37 52
42 74 123 12 47 27 139 32 205 9 96 18 142 49 230 21 61 45 121 52 135 15 30
40 60 50 60 3 0 21 -62 38 -137z m2187 -69 c7 -59 37 -160 62 -208 8 -15 34
-57 58 -92 48 -69 63 -120 46 -152 -14 -27 -99 -82 -126 -82 -23 0 -76 84
-116 182 -41 99 -21 304 36 386 24 34 32 27 40 -34z m-2903 -2912 c56 -24 138
-98 138 -123 0 -12 -19 -10 -135 11 -78 14 -207 11 -281 -6 -76 -17 -100 -9
-69 26 25 28 152 111 184 120 38 11 98 1 163 -28z m392 -30 c98 -40 119 -54
177 -111 58 -59 69 -77 102 -164 27 -72 35 -102 28 -115 -13 -24 -98 -102
-110 -102 -6 0 -22 17 -38 38 -15 20 -46 57 -69 83 -65 72 -97 125 -92 154 4
20 -4 36 -37 73 -48 53 -108 145 -120 181 -7 22 -5 23 21 17 15 -4 78 -28 138
-54z"/>
</g>
</svg>
