<svg version="1.1" id="Livello_1" xmlns="http://www.w3.org/2000/svg" xmlns:xlink="http://www.w3.org/1999/xlink" x="0px" y="0px"
	 viewBox="0 0 963.8 680.3" style="enable-background:new 0 0 963.8 680.3;" xml:space="preserve">
<style type="text/css">
	.st0{fill:#020203;}
	.st1{fill:none;stroke:#020203;stroke-width:6;stroke-miterlimit:10;}
</style>
<g>
	<g>
		<path class="st0" d="M226.4,156.5L81.4,670.7h765.9L702.4,156.5H226.4z M395.2,166.4h138.3l1.7,21.2H393.5L395.2,166.4
			L395.2,166.4z M326.4,166.4h46.5l-3.4,31.8h190l-3.4-31.8h46.5l10.7,66.4H315.6L326.4,166.4z M513.3,244.5
			c-5,10.8-24.8,18.9-48.9,18.9s-43.9-8.2-48.9-18.9H513.3z M572.4,645.9H356.4l3.9-48.6h208.1L572.4,645.9z M679.9,645.9h-72.5
			l-7.6-70.8H329l-7.6,70.8h-72.5l21.8-135h387.4L679.9,645.9z M402.5,491.5c7.7-16.8,32.8-29,61.9-29c29.1,0,54.1,12.2,61.9,29
			H402.5z M805.4,645.9h-90.5l-29-154.4H557.8c-9.4-27-48.3-46.8-93.4-46.8s-84.1,19.8-93.4,46.8H242.9l-29,154.4h-90.5l72.8-284.8
			h185.1c5,22.3,39.7,40,83.1,40c43.4,0,78.1-17.7,83.1-40h185.1L805.4,645.9z M519.4,361.1c-5.5,13.7-27.9,24-55,24
			s-49.5-10.4-55-24H519.4z M410.2,346.2c6.7-12.9,28.7-22.3,54.2-22.3c25.6,0,47.6,9.4,54.2,22.3H410.2z M728.8,346.2H546.3
			c-8-20.8-42.2-36.2-81.9-36.2s-73.9,15.4-81.9,36.2H200l46-179.8H304l-14.7,78.2h101.3c4.6,17.6,35.5,31.5,73.9,31.5
			c38.4,0,69.3-13.9,73.9-31.5h101.3l-14.7-78.2h57.9L728.8,346.2L728.8,346.2z"/>
	</g>
</g>
<path class="st0" d="M918.5,94.6l-53.7-53.7c-1.5-1.5-1.5-4,0-5.6l29.6-29.6c1.5-1.5,4-1.5,5.6,0l53.7,53.7c1.5,1.5,1.5,4,0,5.6
	l-29.6,29.6C922.5,96.1,920.1,96.1,918.5,94.6z"/>
<polyline class="st0" points="939,79.7 906.3,111.7 847,52.3 879.7,20.4 "/>
<polyline class="st0" points="899.7,119.1 698.4,319.5 638.6,259.7 839.9,59.3 "/>
<rect x="638.6" y="259.7" class="st0" width="59.8" height="59.8"/>
<g>
	<line class="st1" x1="263.9" y1="266.1" x2="318.7" y2="311.5"/>
	<line class="st1" x1="261.2" y1="311.5" x2="316" y2="266.1"/>
</g>
<g>
	<line class="st1" x1="612.6" y1="373.1" x2="667.4" y2="418.4"/>
	<line class="st1" x1="609.9" y1="418.4" x2="664.7" y2="373.1"/>
</g>
<g>
	<line class="st1" x1="318.3" y1="413.6" x2="373.1" y2="458.9"/>
	<line class="st1" x1="315.6" y1="458.9" x2="370.5" y2="413.6"/>
</g>
</svg>
