<svg version="1.1" id="Livello_1" xmlns="http://www.w3.org/2000/svg" xmlns:xlink="http://www.w3.org/1999/xlink" x="0px" y="0px"
	 viewBox="0 0 963.8 680.3" style="enable-background:new 0 0 963.8 680.3;" xml:space="preserve">
<style type="text/css">
	.st0{fill:#020203;}
	.st1{fill:none;stroke:#020203;stroke-width:2;stroke-miterlimit:10;}
</style>
<g>
	<g>
		<path class="st0" d="M392.3,307.2l-54.8,194.3H627l-54.8-194.3H392.3z M456.1,310.9h52.3l0.6,8h-53.6L456.1,310.9L456.1,310.9z
			 M430,310.9h17.6l-1.3,12h71.8l-1.3-12h17.6l4.1,25.1H426L430,310.9z M500.7,340.4c-1.9,4.1-9.4,7.2-18.5,7.2s-16.6-3.1-18.5-7.2
			H500.7z M523,492.1h-81.6l1.5-18.4h78.6L523,492.1z M563.7,492.1h-27.4l-2.9-26.8H431.1l-2.9,26.8h-27.4l8.2-51h146.4L563.7,492.1
			z M458.8,433.8c2.9-6.4,12.4-11,23.4-11s20.5,4.6,23.4,11H458.8z M611.1,492.1h-34.2l-11-58.3h-48.4
			c-3.5-10.2-18.3-17.7-35.3-17.7c-17,0-31.8,7.5-35.3,17.7h-48.4l-11,58.3h-34.2l27.5-107.7h69.9c1.9,8.4,15,15.1,31.4,15.1
			c16.4,0,29.5-6.7,31.4-15.1h69.9L611.1,492.1z M503,384.5c-2.1,5.2-10.5,9.1-20.8,9.1s-18.7-3.9-20.8-9.1H503z M461.7,378.9
			c2.5-4.9,10.8-8.4,20.5-8.4s18,3.6,20.5,8.4H461.7z M582.1,378.9h-69c-3-7.9-15.9-13.7-31-13.7c-15,0-27.9,5.8-31,13.7h-69
			l17.4-68h21.9l-5.5,29.5h38.3c1.7,6.6,13.4,11.9,27.9,11.9c14.5,0,26.2-5.3,27.9-11.9h38.3l-5.5-29.5h21.9L582.1,378.9
			L582.1,378.9z"/>
	</g>
</g>
<path class="st0" d="M652.1,282.1l-16.8-16.8c-1.5-1.5-1.5-4,0-5.6l7.7-7.7c1.5-1.5,4-1.5,5.6,0l16.8,16.8c1.5,1.5,1.5,4,0,5.6
	l-7.7,7.7C656.2,283.6,653.7,283.6,652.1,282.1z"/>
<polyline class="st0" points="661.6,278.2 649.2,290.2 626.8,267.8 639.2,255.7 "/>
<polyline class="st0" points="646.7,293 570.7,368.8 548.1,346.2 624.1,270.4 "/>
<rect x="548.1" y="346.2" class="st0" width="22.6" height="22.6"/>
<g>
	<line class="st1" x1="406.4" y1="348.6" x2="427.1" y2="365.7"/>
	<line class="st1" x1="405.4" y1="365.7" x2="426.1" y2="348.6"/>
</g>
<g>
	<line class="st1" x1="538.2" y1="389" x2="558.9" y2="406.2"/>
	<line class="st1" x1="537.2" y1="406.2" x2="557.9" y2="389"/>
</g>
<g>
	<line class="st1" x1="427" y1="404.3" x2="447.7" y2="421.5"/>
	<line class="st1" x1="426" y1="421.5" x2="446.7" y2="404.3"/>
</g>
</svg>
