<svg version="1.0" xmlns="http://www.w3.org/2000/svg"
 width="403.000000pt" height="931.000000pt" viewBox="0 0 403.000000 931.000000"
 preserveAspectRatio="xMidYMid meet">

<g transform="translate(0.000000,931.000000) scale(0.100000,-0.100000)"
fill="#000000" stroke="none">
<path d="M1847 9300 c-44 -8 -94 -52 -139 -123 l-30 -47 7 -163 c4 -89 8 -250
9 -357 2 -182 4 -201 29 -278 32 -98 34 -155 8 -199 -31 -50 -186 -144 -466
-283 -143 -70 -281 -142 -307 -158 -61 -40 -276 -287 -356 -410 -35 -53 -103
-177 -152 -276 -53 -106 -105 -195 -128 -220 -21 -23 -63 -84 -94 -136 -31
-52 -72 -116 -93 -143 -20 -26 -43 -64 -52 -85 -8 -20 -26 -49 -38 -64 -28
-33 -49 -125 -42 -185 10 -93 271 -565 458 -828 59 -84 163 -196 238 -258 l44
-36 -27 -59 c-38 -85 -34 -125 20 -250 46 -105 46 -105 60 -291 19 -239 52
-452 104 -671 23 -96 45 -203 47 -236 l6 -62 -111 -3 c-107 -4 -112 -5 -142
-34 -45 -43 -63 -77 -106 -190 -20 -55 -79 -192 -131 -305 -52 -113 -106 -234
-120 -270 -31 -80 -41 -220 -24 -312 15 -77 73 -198 118 -245 32 -35 33 -35
102 -31 57 3 75 8 96 28 81 76 234 374 235 459 l1 26 30 -35 c16 -19 58 -75
91 -124 90 -131 162 -198 272 -251 50 -25 113 -61 139 -80 57 -40 155 -74 244
-82 54 -5 69 -2 117 21 77 38 199 154 232 222 49 100 43 323 -17 641 -16 87
-36 213 -44 280 -17 145 -31 443 -21 443 19 0 146 -329 146 -378 0 -48 32
-102 71 -123 48 -24 80 -83 115 -214 50 -190 66 -337 44 -430 -5 -22 -14 -89
-20 -150 -17 -171 -28 -217 -76 -342 -67 -173 -91 -280 -108 -475 -9 -95 -24
-204 -34 -243 -11 -38 -38 -142 -61 -229 -33 -128 -56 -188 -111 -300 -54
-110 -82 -184 -125 -332 -30 -106 -55 -208 -55 -228 0 -32 4 -39 33 -51 52
-22 179 -36 382 -42 l190 -6 47 -43 c25 -24 59 -46 75 -50 45 -12 544 37 691
67 69 14 118 57 160 141 46 90 72 189 79 295 5 84 3 101 -22 179 -86 263 -315
434 -585 434 -36 0 -105 -7 -155 -15 -108 -18 -105 -18 -105 -4 0 6 30 74 66
152 134 286 234 559 234 636 0 45 42 296 65 386 9 33 20 116 24 185 5 69 19
166 32 215 20 85 21 98 10 225 -16 187 -14 219 13 302 67 199 76 396 32 697
-26 175 -28 200 -16 245 19 73 15 90 -36 167 -55 84 -89 163 -104 249 -6 36
-22 97 -35 135 -54 158 -57 283 -11 457 14 54 28 121 32 150 6 52 5 55 -66
168 -115 184 -113 178 -118 317 -5 145 5 173 62 173 37 0 99 -47 222 -168 45
-43 97 -83 132 -100 31 -16 84 -46 117 -69 33 -22 70 -44 81 -47 28 -9 54 -38
79 -89 16 -34 28 -44 61 -53 54 -16 75 -27 143 -79 36 -27 75 -47 108 -55 50
-11 103 -42 103 -60 0 -4 -13 -13 -30 -20 -79 -33 3 -130 123 -146 35 -5 48
-3 63 13 10 10 31 27 46 36 16 10 28 26 28 35 0 10 13 28 29 40 74 54 67 295
-10 370 -18 17 -93 62 -168 101 -146 75 -162 87 -180 140 -17 51 -59 101 -100
118 -43 18 -175 149 -249 248 -29 38 -89 140 -133 227 l-80 159 20 137 c46
312 50 538 15 723 -19 104 -53 168 -119 225 -48 42 -293 221 -437 320 -77 51
-78 55 -58 184 15 94 16 95 69 133 74 53 81 78 91 300 6 140 14 216 30 281 29
121 24 147 -43 189 -29 19 -65 53 -81 78 -42 62 -67 89 -83 89 -8 0 -47 16
-86 35 -48 23 -97 38 -147 45 -86 11 -327 11 -383 0z m-982 -3245 c5 -172 4
-248 -4 -269 -12 -29 -12 -28 -63 70 -28 54 -61 113 -74 131 -13 17 -24 36
-24 40 0 5 -11 24 -25 43 -28 38 -33 91 -10 110 8 7 20 31 27 54 13 47 44 84
108 132 l45 33 6 -52 c4 -29 10 -160 14 -292z m1805 30 c14 -16 8 -40 -20 -75
l-20 -25 0 58 c0 59 14 74 40 42z"/>
</g>
</svg>
