<svg version="1.1" id="Livello_1" xmlns="http://www.w3.org/2000/svg" xmlns:xlink="http://www.w3.org/1999/xlink" x="0px" y="0px"
	 viewBox="0 0 600 601" style="enable-background:new 0 0 600 601;" xml:space="preserve">
<style type="text/css">
	.st0{opacity:0.92;}
	.st1{fill:none;stroke:#000000;stroke-width:8;stroke-miterlimit:10;}
</style>
<g id="Livello_2">
	<g transform="translate(0.000000,601.000000) scale(0.100000,-0.100000)" class="st0">
		<path d="M2811.2,5367.2c-230.7-20.4-459.8-105.6-650.5-242c-136.5-97.3-266.4-238.1-353.7-382.8
			c-205.5-339.4-245.5-757.9-108.2-1128.1c123-331.6,374.6-599.7,697.9-742.7c224.2-99.1,483.2-133.4,722.7-96
			c51.3,8.3,128.6,24.8,126,26.9c-0.9,0.9-16.1-0.9-33.5-4.8c-252.5-51.3-550.1-10.9-782.2,106c-27.8,14.3-70.8,51.7-80.4,70.8
			c-4.8,8.7-8.3,34.8-10.4,80.4l-3.9,67.4l11.7,24.3c13.9,28.7,65.2,82.6,100.8,105.6c13,8.3,60,35.6,104.3,60.4
			c167.7,93.4,194.7,101.7,289,88.6c131.2-17.8,261.6-49.5,509.7-123.4l57.4-16.9l34.3,67.8c65.6,131.2,154.3,275.1,260.3,422
			c61.7,85.6,70.4,93,133.4,113.4c45.6,14.3,69.5,20,182.5,43.9c93.4,19.6,149.9,33.9,149.9,38.2c0,8.3-12.6,13.5-33.5,13.5
			c-12.2,0-65.2-6.1-117.3-13.5c-107.3-15.2-200.8-18.7-239-9.1c-20.9,5.6-28.7,12.2-108.6,91.7c-75.2,74.3-188.2,196-273.8,293.8
			c-28.7,33-43.9,60.4-56.5,99.9c-10,33.9-10,140.8,0.4,236.8c3.9,36.9,8.3,99.5,9.6,139.1c2.6,80.8,8.7,107.8,27.8,131.2
			c17.4,21.3,226,146.9,243.8,146.9c12.6,0,110.4-74.3,170.8-129.9c157.7-144.7,277.2-329,343.7-528.9
			c18.7-55.6,43.5-154.7,47.8-189.9c3-23.5,4.3-26.1,22.6-38.2l19.1-13.5l-2.6,23.5c-27.4,230.3-99.1,423.3-226.8,609.7
			c-81.3,118.2-190.3,229.9-307.2,314.6C3438.3,5305,3116.3,5394.6,2811.2,5367.2z M2901.2,5255.9c-41.7-72.6-50-79.5-101.7-90.8
			c-157.7-33.5-212.5-53.9-326.8-122.5c-82.1-49.1-128.6-73.4-152.1-79.1c-17.4-4.3-26.5-3.9-60.8,3.9
			c-22.2,4.8-52.1,12.6-66.1,16.9l-26.1,7.8l36.9,28.7c136.5,106.5,312,189,483.2,226.8c66.9,15.2,148.2,26.1,202.1,27.8l23.5,0.9
			L2901.2,5255.9z M2897.3,5135.1c70.4-12.6,116.9-34.8,267.3-127.3c72.1-44.8,99.9-66.5,121.7-94.3c26.1-33.9,26.9-40.4,19.6-134.7
			c-14.3-180.8-32.2-258.1-73.9-326.4c-38.2-61.7-80.4-88.6-265.5-170.3c-120.8-53.9-298.1-118.2-323.7-118.2
			c-16.5,0-73.4,30-119.9,63.4c-46.5,33.5-139.5,109.5-192.1,157.3l-36.5,33l3,54.3c3.9,70,15.2,156,39.1,298.5
			c20.9,125.6,25.6,139.5,63.4,181.6c63.9,70.8,211.6,143.4,358.5,176C2823.4,5142.5,2847.3,5143.8,2897.3,5135.1z M2367.1,4307.7
			c114.7-83.9,145.6-109.1,199.9-161.7c60.8-59.1,68.2-73,84.3-158.2c27.8-146.9,41.7-269.4,46.5-412.8c3-82.6,2.6-88.2-6.1-107.8
			c-11.3-25.6-45.6-60-85.6-86c-60-39.5-218.1-125.2-250.7-136c-48.7-16.5-62.1-15.2-104.7,9.1c-46.1,26.1-111.2,70-187.7,125.2
			c-33.5,24.3-76,54.3-94.3,66.5c-42.2,28.2-70,57.4-83.9,86.5c-11.7,24.8-33,124.3-43,201.2c-8.3,63.4-21.7,281.6-21.7,349.8
			c0,58.7,7.8,93,25.6,114.3c14.8,17.8,109.9,63.4,247.7,119.1c69.5,28.2,173.4,63.4,178.2,60.8
			C2274.1,4376.4,2317.2,4344.7,2367.1,4307.7z M1756.1,4232.1c11.7-14.3,24.3-109.5,30.9-231.2c5.2-97.8,10-141.7,35.2-305.5
			c16.9-111.2,19.6-148.2,10.4-149.5c-19.1-2.6-72.6,169.5-93.4,298.5c-16.5,103.4-18.7,267.7-4.3,355.9
			C1740.9,4239.5,1744.8,4245.2,1756.1,4232.1z"/>
		<path d="M3272.3,2809.4c3-1.3,7-0.9,8.3,0.4c1.7,1.3-0.9,2.6-5.6,2.2C3270.1,2812,3268.8,2810.7,3272.3,2809.4z"/>
		<path d="M3254.9,2805c3-1.3,7-0.9,8.3,0.4c1.7,1.3-0.9,2.6-5.6,2.2C3252.7,2807.6,3251.4,2806.3,3254.9,2805z"/>
	</g>
	<path class="st1" d="M127.5,283.6c-14.4-26.5-22.6-56.9-22.6-89.3c0-103.4,83.8-187.3,187.3-187.3s187.3,83.8,187.3,187.3
		c0,34.3-11.2,69.7-27.3,97.3"/>
	<polyline class="st1" points="125.7,280.2 289.9,590 452.1,291.7 	"/>
</g>
</svg>
