<svg version="1.0" xmlns="http://www.w3.org/2000/svg"
 width="663.000000pt" height="999.000000pt" viewBox="0 0 663.000000 999.000000"
 preserveAspectRatio="xMidYMid meet">

<g transform="translate(0.000000,999.000000) scale(0.100000,-0.100000)"
fill="#000000" stroke="none">
<path d="M2324 9975 c-202 -36 -352 -205 -419 -471 -33 -127 -40 -220 -26
-314 17 -108 28 -145 55 -177 13 -15 29 -46 36 -68 19 -62 108 -228 188 -352
40 -62 81 -132 91 -156 10 -23 31 -57 46 -75 l27 -32 -27 -68 c-60 -148 -71
-168 -135 -232 -56 -57 -87 -77 -220 -145 -194 -98 -253 -137 -289 -189 -82
-121 -112 -388 -71 -633 27 -159 103 -499 146 -658 57 -206 163 -522 205 -612
66 -140 211 -273 281 -259 41 8 163 85 258 161 99 81 129 100 140 89 17 -18
41 -124 75 -333 20 -119 43 -238 51 -264 20 -59 19 -129 0 -244 -8 -48 -22
-141 -31 -205 -8 -64 -22 -132 -29 -150 -7 -18 -16 -67 -20 -108 -4 -55 -14
-90 -36 -132 -16 -31 -39 -94 -50 -140 -12 -46 -66 -217 -121 -382 -131 -393
-138 -420 -150 -656 -11 -222 -24 -294 -80 -456 -47 -136 -78 -200 -111 -231
-13 -13 -65 -40 -115 -62 -255 -109 -424 -294 -614 -673 -57 -114 -110 -203
-247 -420 -34 -53 -92 -148 -128 -210 -90 -154 -134 -211 -202 -256 -53 -37
-105 -89 -160 -162 -13 -17 -40 -37 -58 -45 -19 -8 -79 -50 -133 -93 -53 -43
-149 -109 -212 -147 -192 -116 -239 -176 -239 -307 0 -96 57 -116 295 -104
234 11 445 51 553 104 64 31 115 85 169 178 23 38 70 108 105 155 37 50 74
113 88 150 51 138 146 303 224 388 24 25 53 65 64 87 37 73 177 187 346 281
123 69 202 145 305 295 85 125 127 166 213 209 132 66 264 182 397 349 198
251 241 298 294 323 64 30 190 120 277 196 92 82 95 83 222 79 l112 -3 21 32
c12 17 39 78 60 135 57 155 154 349 240 478 42 63 82 121 89 128 10 10 20 4
50 -35 20 -26 90 -106 154 -177 221 -244 256 -299 298 -469 28 -114 81 -235
142 -323 70 -104 56 -100 244 -71 90 14 197 37 238 50 41 14 113 33 159 43
l84 18 38 -43 c21 -24 67 -86 103 -138 l64 -95 -60 -91 c-79 -120 -122 -207
-158 -318 -16 -50 -44 -117 -61 -148 -76 -135 -244 -336 -317 -378 -68 -39
-175 -126 -217 -177 -32 -39 -38 -56 -50 -138 -17 -110 -19 -202 -5 -229 7
-13 21 -19 45 -19 50 0 64 -8 87 -54 34 -68 45 -76 105 -76 71 0 109 -17 208
-95 114 -89 150 -132 225 -276 63 -121 66 -125 120 -152 85 -42 242 -69 380
-65 101 3 123 7 175 31 73 34 105 63 105 94 0 14 -24 50 -65 96 -36 39 -82 97
-102 127 -46 69 -248 277 -302 310 -31 19 -42 33 -47 60 -10 51 -17 62 -105
158 -43 47 -79 89 -79 93 0 3 29 49 63 100 35 52 72 111 82 132 21 44 99 106
228 178 157 88 208 130 343 286 71 82 161 185 201 230 73 82 116 156 159 271
l24 63 -81 167 c-129 267 -158 350 -194 560 -36 212 -263 738 -460 1067 -48
79 -104 187 -126 240 -47 115 -58 132 -172 255 -76 82 -97 114 -157 233 -43
84 -70 151 -70 170 0 62 -20 103 -84 174 -35 39 -95 116 -134 170 -38 54 -86
118 -106 141 -40 49 -42 58 -21 98 21 41 19 74 -10 160 -14 42 -23 79 -20 84
3 4 26 18 53 31 71 33 205 175 294 309 85 129 247 445 308 602 52 133 100 300
100 349 0 32 8 46 50 88 28 28 71 62 96 77 32 19 52 41 69 75 14 27 25 53 25
59 0 5 -16 10 -35 10 -45 0 -42 8 55 115 103 115 143 190 121 225 -8 11 -21 5
-69 -33 -33 -26 -63 -47 -66 -47 -20 0 2 49 59 131 64 92 76 121 54 134 -20
13 -57 -5 -108 -51 -29 -26 -54 -44 -58 -41 -3 4 11 44 31 91 40 94 43 108 22
125 -29 24 -67 -12 -176 -170 -74 -106 -221 -259 -269 -279 -53 -22 -57 -5
-26 102 15 51 34 116 43 144 16 56 11 93 -14 119 -29 28 -52 -5 -104 -145 -16
-44 -47 -118 -69 -163 -50 -105 -106 -275 -131 -397 -11 -52 -29 -119 -40
-149 -11 -29 -27 -85 -36 -124 -24 -115 -83 -227 -120 -227 -14 0 -28 45 -39
123 -9 64 -48 137 -250 462 -332 536 -436 673 -548 720 -51 21 -232 53 -342
60 -116 8 -228 24 -443 66 -229 45 -251 59 -263 160 -5 40 -16 73 -33 98 -33
47 -36 134 -6 199 28 63 46 58 160 -39 131 -111 228 -143 440 -143 218 1 315
32 450 146 134 113 232 251 260 368 18 77 24 269 11 345 -40 231 -240 461
-477 551 -84 32 -256 43 -374 25 -182 -28 -384 -172 -505 -361 -23 -36 -49
-71 -58 -78 -17 -15 -37 -8 -37 11 0 7 -23 49 -50 92 -28 44 -58 105 -67 135
-18 64 -38 95 -112 173 l-54 57 -161 -1 c-89 0 -193 -7 -232 -14z"/>
</g>
</svg>
